<svg xmlns="http://www.w3.org/2000/svg" width="288" height="256" viewBox="0 0 288 256" shape-rendering="crispEdges">
  <title>Ohm provisional original — atlas sprite/impostor</title>
  <defs>
    <symbol id="front" viewBox="0 0 48 64"><path fill="#343847" d="M14 30h20l5 8v17H9V38z"/><path fill="#b47345" d="M17 22h14v10H17z"/><path fill="#70c7c1" d="M19 34h10v7H19z"/><path fill="#222531" d="M12 55h24v5H12z"/><path fill="#b47345" d="M6 37h6v12H6zM36 37h6v12h-6z"/></symbol>
    <symbol id="back" viewBox="0 0 48 64"><path fill="#343847" d="M14 30h20l5 8v17H9V38z"/><path fill="#b47345" d="M17 22h14v10H17z"/><path fill="#242743" d="M19 34h10v7H19z"/><path fill="#222531" d="M12 55h24v5H12z"/><path fill="#b47345" d="M6 37h6v12H6zM36 37h6v12h-6z"/></symbol>
    <symbol id="right" viewBox="0 0 48 64"><path fill="#343847" d="M13 30h19l7 8v17H9V38z"/><path fill="#b47345" d="M18 22h13v10H18z"/><path fill="#70c7c1" d="M26 34h8v7h-8z"/><path fill="#222531" d="M12 55h24v5H12z"/><path fill="#b47345" d="M7 37h6v12H7zM36 37h6v12h-6z"/></symbol>
    <symbol id="left" viewBox="0 0 48 64"><path fill="#343847" d="M16 30h19l4 8v17H9V38z"/><path fill="#b47345" d="M17 22h13v10H17z"/><path fill="#70c7c1" d="M14 34h8v7h-8z"/><path fill="#222531" d="M12 55h24v5H12z"/><path fill="#b47345" d="M6 37h6v12H6zM35 37h6v12h-6z"/></symbol>
    <pattern id="p-n" width="48" height="64" patternUnits="userSpaceOnUse"><use href="#back" width="48" height="64"/></pattern><pattern id="p-e" width="48" height="64" patternUnits="userSpaceOnUse"><use href="#right" width="48" height="64"/></pattern><pattern id="p-s" width="48" height="64" patternUnits="userSpaceOnUse"><use href="#front" width="48" height="64"/></pattern><pattern id="p-w" width="48" height="64" patternUnits="userSpaceOnUse"><use href="#left" width="48" height="64"/></pattern>
  </defs>
  <rect width="288" height="64" fill="url(#p-n)"/><rect y="64" width="288" height="64" fill="url(#p-e)"/><rect y="128" width="288" height="64" fill="url(#p-s)"/><rect y="192" width="288" height="64" fill="url(#p-w)"/>
  <g fill="#e6d8ad"><path d="M66 54h12v4H66zM114 49h16v4h-16zM162 42h12v10h-12zM210 34h13v9h-13zM258 30h7v14h-7z"/><path d="M112 35h4v14h-4zM128 35h4v14h-4zM160 31h4v16h-4zM174 31h4v16h-4z"/></g>
  <g fill="#f0d46b"><path d="M163 36h10v6h-10zM211 37h10v4h-10z"/></g><g fill="#d0675a"><path d="M211 31h10v4h-10zM259 35h10v4h-10z"/></g>
</svg>
